<svg version="1.0" xmlns="http://www.w3.org/2000/svg"
     width="170.000000pt" height="70.000000pt" viewBox="0 0 70 70"
     preserveAspectRatio="xMidYMid meet">
        <polygon points="14,68 63,20 4,11" fill="#efad4e" />
        <ellipse cx="25" cy="13" rx="12" ry="2" fill="#efad4e" />
        <ellipse cx="35" cy="15" rx="12" ry="2" fill="#efad4e" />
        <ellipse cx="45" cy="17" rx="12" ry="2" fill="#efad4e" />
        <ellipse cx="50" cy="19" rx="12" ry="2" fill="#efad4e" />
    <g transform="translate(0.000000,70.000000) scale(0.100000,-0.100000)"
       stroke="#efad4e">
        <path d="M40 584 c0 -15 11 -16 98 -10 72 5 111 3 152 -9 30 -8 86 -15 123
 -15 46 0 79 -6 105 -19 53 -27 111 -41 118 -30 9 15 7 15 -90 43 -104 31 -295
56 -418 56 -75 0 -88 -2 -88 -16z" fill="#df8927"/>
        <path d="M210 546 c0 -8 6 -16 13 -19 19 -7 41 8 33 22 -10 16 -46 14 -46 -3z" fill="#424643"/>
        <path d="M394 515 c-21 -21 -23 -28 -14 -45 22 -41 81 -48 115 -14 20 21 19
        40 -5 64 -27 27 -66 25 -96 -5z" fill="#c51a14"/>
        <path d="M112 514 c-43 -30 -14 -94 44 -94 29 0 74 37 74 60 0 24 -37 50 -70
        50 -14 0 -36 -7 -48 -16z" fill="#c51a14"/>
        <path d="M304 465 c-4 -9 -2 -21 4 -27 16 -16 47 -5 47 17 0 26 -42 34 -51 10z" fill="#424643"/>
        <path d="M304 403 c-12 -2 -32 -15 -45 -29 -19 -20 -21 -29 -13 -52 20 -57
        113 -67 154 -15 25 32 25 36 -2 66 -24 26 -58 37 -94 30z" fill="#c51a14"/>
        <path d="M126 377 c-20 -15 -6 -40 20 -35 23 4 30 33 10 41 -8 3 -21 0 -30 -6z" fill="#424643"/>
        <path d="M425 380 c-8 -12 20 -24 35 -15 5 3 10 10 10 16 0 12 -37 12 -45 -1z" fill="#424643"/>
        <path d="M92 321 c-8 -5 -9 -17 -2 -41 5 -19 12 -52 15 -72 5 -31 10 -38 29
         -38 13 0 35 11 50 25 33 30 35 74 4 102 -25 22 -77 36 -96 24z" fill="#c51a14"/>
        <path d="M235 206 c-16 -12 -17 -16 -6 -30 17 -20 35 -20 51 -1 10 12 10 18 0
        30 -15 19 -21 19 -45 1z" fill="#424643"/>
        <path d="M205 140 c-18 -8 -17 -9 7 -9 15 -1 30 4 33 9 7 12 -12 12 -40 0z" fill="#c51a14"/>
    </g>
</svg>
